<svg width="100" height="28" viewBox="0 0 100 28" fill="none" xmlns="http://www.w3.org/2000/svg">
<path d="M5.64611 23.2113C5.61162 23.2122 5.57727 23.2063 5.54507 23.1939C5.51287 23.1815 5.48346 23.1628 5.45855 23.1389C5.43364 23.115 5.41373 23.0864 5.39998 23.0548C5.38622 23.0231 5.37889 22.9891 5.37842 22.9546V14.2966C5.37842 11.462 7.57866 9.40472 10.6847 9.40472C13.6953 9.40472 15.9909 11.605 15.9909 14.2966C15.9909 17.2633 13.9447 19.2288 10.857 19.2288C10.2909 19.2228 9.73149 19.1057 9.21051 18.8841C9.17098 18.8683 9.12826 18.8622 9.08588 18.8662C9.0435 18.8702 9.00269 18.8843 8.96684 18.9072C8.93098 18.9302 8.90112 18.9613 8.87972 18.9981C8.85832 19.0349 8.84601 19.0763 8.8438 19.1188V22.9546C8.84188 23.0239 8.81272 23.0898 8.76261 23.1378C8.71251 23.1859 8.64551 23.2122 8.57611 23.2113H5.64611ZM12.5182 14.3149C12.522 14.0756 12.4767 13.8381 12.3852 13.617C12.2936 13.3959 12.1578 13.1958 11.986 13.0292C11.8142 12.8626 11.6101 12.7329 11.3863 12.6481C11.1625 12.5634 10.9237 12.5254 10.6847 12.5364C10.213 12.5364 9.7606 12.7238 9.42706 13.0573C9.09352 13.3909 8.90614 13.8432 8.90614 14.3149C8.90614 14.7866 9.09352 15.239 9.42706 15.5725C9.7606 15.9061 10.213 16.0935 10.6847 16.0935C10.9233 16.1029 11.1614 16.0638 11.3845 15.9785C11.6076 15.8931 11.8111 15.7634 11.9825 15.5971C12.154 15.4308 12.2899 15.2314 12.3819 15.011C12.474 14.7906 12.5204 14.5538 12.5182 14.3149Z" fill="#1C3954"/>
<path d="M19.6947 9.7201V9.85212H22.4927C22.5298 9.85014 22.5669 9.8555 22.6019 9.86789C22.6369 9.88028 22.6691 9.89946 22.6967 9.92433C22.7243 9.9492 22.7467 9.97927 22.7627 10.0128C22.7787 10.0464 22.7878 10.0827 22.7897 10.1198V12.4741C22.7878 12.5112 22.7787 12.5475 22.7627 12.5811C22.7467 12.6146 22.7243 12.6447 22.6967 12.6696C22.6691 12.6944 22.6369 12.7136 22.6019 12.726C22.5669 12.7384 22.5298 12.7437 22.4927 12.7418H19.9917C19.9546 12.7398 19.9175 12.7452 19.8825 12.7575C19.8475 12.7699 19.8153 12.7891 19.7877 12.814C19.7601 12.8389 19.7377 12.8689 19.7217 12.9025C19.7058 12.936 19.6966 12.9724 19.6947 13.0095V19.2105C19.6928 19.2476 19.6836 19.284 19.6677 19.3175C19.6517 19.351 19.6293 19.3811 19.6017 19.406C19.5741 19.4308 19.5419 19.45 19.5069 19.4624C19.4719 19.4748 19.4348 19.4802 19.3977 19.4782H16.1266C16.0513 19.4822 15.9775 19.4563 15.9212 19.4062C15.8649 19.3561 15.8307 19.2857 15.8259 19.2105V18.5394C15.8272 18.4829 15.8479 18.4285 15.8846 18.3854C16.8234 17.2498 17.3415 15.825 17.3514 14.3516C17.3473 12.9379 16.8255 11.5747 15.8846 10.5195C15.8446 10.4768 15.8223 10.4204 15.8223 10.3618V9.79711C15.8223 7.23016 17.4541 5.1986 20.9562 5.1986C21.5836 5.19327 22.2086 5.27849 22.8117 5.45163C22.8687 5.46588 22.9196 5.49826 22.9566 5.54388C22.9936 5.58951 23.0149 5.64593 23.0171 5.70466V8.27161C23.0127 8.31754 22.9975 8.36178 22.9728 8.40076C22.9481 8.43973 22.9146 8.47233 22.875 8.49591C22.8353 8.51949 22.7906 8.53338 22.7446 8.53646C22.6986 8.53954 22.6525 8.53172 22.61 8.51364C22.1939 8.37306 21.7584 8.29881 21.3192 8.29361C20.3181 8.27528 19.6947 8.796 19.6947 9.7201Z" fill="#315D89"/>
<path d="M25.5694 1.00412H2.83354C1.8209 1.00412 1 1.82502 1 2.83766V25.5735C1 26.5862 1.8209 27.4071 2.83354 27.4071H25.5694C26.582 27.4071 27.4029 26.5862 27.4029 25.5735V2.83766C27.4029 1.82502 26.582 1.00412 25.5694 1.00412Z" stroke="#1C3954" stroke-miterlimit="10"/>
<path d="M34.0034 13.0901V2.69398C34.0044 2.6301 34.018 2.56703 34.0434 2.50843C34.0688 2.44982 34.1056 2.39683 34.1517 2.35251C34.1977 2.3082 34.252 2.27343 34.3115 2.25021C34.3711 2.227 34.4346 2.2158 34.4985 2.21726H38.1435C41.4806 2.21726 43.5231 3.72076 43.5231 6.35005C43.5231 9.08569 41.5136 10.5672 38.2829 10.5672H37.0471C36.919 10.5662 36.7956 10.6156 36.7037 10.7048C36.6117 10.794 36.5586 10.9158 36.5557 11.0439V13.0828C36.5528 13.2109 36.4997 13.3327 36.4077 13.4219C36.3158 13.5111 36.1924 13.5605 36.0643 13.5595H34.5021C34.4386 13.5615 34.3752 13.5509 34.3158 13.5283C34.2563 13.5058 34.2018 13.4718 34.1555 13.4282C34.1092 13.3846 34.0719 13.3323 34.0458 13.2743C34.0197 13.2163 34.0053 13.1537 34.0034 13.0901ZM36.5704 4.97123V7.81321C36.5713 7.87678 36.5848 7.93954 36.61 7.9979C36.6352 8.05627 36.6717 8.10909 36.7173 8.15336C36.7629 8.19763 36.8169 8.23248 36.876 8.25591C36.9351 8.27934 36.9982 8.2909 37.0618 8.28993H38.2206C39.8964 8.28993 40.9122 7.66653 40.9122 6.35005C40.9122 5.10325 39.8964 4.49451 38.2206 4.49451H37.0471C36.9835 4.49354 36.9204 4.5051 36.8613 4.52854C36.8022 4.55197 36.7483 4.58682 36.7026 4.63109C36.657 4.67535 36.6206 4.72818 36.5953 4.78654C36.5701 4.8449 36.5567 4.90766 36.5557 4.97123H36.5704Z" fill="#2A3235"/>
<path d="M45.5551 13.5705C45.4912 13.572 45.4277 13.5608 45.3682 13.5376C45.3087 13.5144 45.2543 13.4796 45.2083 13.4353C45.1623 13.391 45.1255 13.338 45.1 13.2794C45.0746 13.2208 45.061 13.1577 45.0601 13.0938V8.78134C45.0601 6.63977 46.3179 5.00059 48.8848 5.00059C49.311 4.99987 49.7353 5.05661 50.1463 5.16927C50.2461 5.19654 50.3342 5.25578 50.3971 5.33791C50.46 5.42004 50.4943 5.52053 50.4947 5.62399V6.90747C50.4917 6.98307 50.4715 7.057 50.4356 7.12357C50.3996 7.19014 50.3489 7.24759 50.2873 7.2915C50.2257 7.33541 50.1548 7.36461 50.0801 7.37687C50.0055 7.38912 49.929 7.3841 49.8566 7.36218C49.6173 7.29835 49.3708 7.26508 49.1232 7.26317C48.9098 7.24668 48.6955 7.27706 48.4951 7.35219C48.2948 7.42732 48.1133 7.54537 47.9634 7.69806C47.8135 7.85075 47.6988 8.03439 47.6274 8.2361C47.556 8.4378 47.5296 8.65269 47.55 8.86568V13.0938C47.549 13.1574 47.5356 13.2201 47.5104 13.2785C47.4852 13.3369 47.4487 13.3897 47.4031 13.434C47.3574 13.4782 47.3035 13.5131 47.2444 13.5365C47.1853 13.5599 47.1222 13.5715 47.0586 13.5705H45.5551Z" fill="#2A3235"/>
<path d="M51.2607 9.32041C51.2519 8.73262 51.3627 8.14916 51.5863 7.60548C51.8099 7.0618 52.1416 6.56924 52.5614 6.15769C52.9812 5.74615 53.4802 5.42421 54.0282 5.21144C54.5762 4.99866 55.1617 4.89948 55.7492 4.91992C58.4922 4.91992 60.0837 6.87814 60.0837 9.15539V9.38642C60.0808 9.51513 60.0272 9.63748 59.9344 9.72679C59.8417 9.81609 59.7174 9.8651 59.5887 9.86314H54.3154C54.2354 9.85968 54.1558 9.87661 54.0841 9.91234C54.0124 9.94806 53.9509 10.0014 53.9055 10.0674C53.86 10.1334 53.8321 10.2098 53.8242 10.2895C53.8164 10.3692 53.8289 10.4497 53.8607 10.5232C54.0594 10.9022 54.3626 11.2163 54.7343 11.4282C55.1061 11.6401 55.5309 11.7409 55.9583 11.7187C56.321 11.7312 56.6817 11.66 57.0124 11.5105C57.3431 11.3611 57.6349 11.1374 57.8651 10.8569C57.9358 10.7628 58.0369 10.696 58.1512 10.668C58.2655 10.6399 58.386 10.6522 58.4922 10.7029L59.5337 11.209C59.5947 11.2368 59.649 11.2774 59.693 11.328C59.7371 11.3785 59.7697 11.438 59.7888 11.5023C59.808 11.5666 59.8131 11.6342 59.8038 11.7006C59.7946 11.767 59.7713 11.8307 59.7353 11.8874C59.3248 12.5008 58.7635 12.9983 58.1053 13.3322C57.4471 13.6662 56.714 13.8253 55.9766 13.7942C53.285 13.7906 51.2607 11.9864 51.2607 9.32041ZM56.9227 8.52099C57.009 8.52263 57.0941 8.50082 57.1689 8.45791C57.2438 8.41499 57.3055 8.35256 57.3477 8.27728C57.3899 8.202 57.4108 8.11669 57.4083 8.03045C57.4058 7.94421 57.3799 7.86027 57.3334 7.78757C57.1499 7.53655 56.9073 7.33463 56.6272 7.19968C56.347 7.06472 56.0379 7.00089 55.7272 7.01382C55.4115 7.00209 55.0975 7.06623 54.8117 7.20086C54.5259 7.33549 54.2764 7.53668 54.0844 7.78757C54.0377 7.86053 54.0118 7.94482 54.0094 8.03139C54.0071 8.11796 54.0283 8.20354 54.0709 8.27894C54.1135 8.35434 54.1759 8.41672 54.2513 8.45936C54.3266 8.502 54.4122 8.52331 54.4988 8.52099H56.9227Z" fill="#2A3235"/>
<path d="M77.0439 9.20305V13.0938C77.043 13.1577 77.0294 13.2208 77.004 13.2794C76.9785 13.338 76.9417 13.391 76.8957 13.4353C76.8497 13.4796 76.7953 13.5144 76.7358 13.5376C76.6763 13.5608 76.6128 13.572 76.5489 13.5705H75.0564C74.9277 13.5725 74.8034 13.5235 74.7106 13.4342C74.6179 13.3449 74.5642 13.2225 74.5613 13.0938V9.6211C74.5613 8.34129 73.9856 7.2595 72.6251 7.2595C71.2646 7.2595 70.7036 8.32295 70.7036 9.58809V13.1085C70.7007 13.2372 70.647 13.3596 70.5543 13.4489C70.4615 13.5382 70.3372 13.5872 70.2085 13.5852H68.716C68.6521 13.5867 68.5886 13.5755 68.5291 13.5523C68.4696 13.529 68.4152 13.4943 68.3692 13.45C68.3232 13.4056 68.2864 13.3526 68.2609 13.294C68.2355 13.2354 68.2219 13.1724 68.221 13.1085V9.59176C68.221 8.30829 67.6452 7.24483 66.2994 7.24483C64.9536 7.24483 64.3779 8.32662 64.3779 9.59176V13.0938C64.3769 13.1577 64.3633 13.2208 64.3379 13.2794C64.3124 13.338 64.2756 13.391 64.2296 13.4353C64.1836 13.4796 64.1293 13.5144 64.0697 13.5376C64.0102 13.5608 63.9467 13.572 63.8828 13.5705H62.3903C62.3267 13.5715 62.2636 13.5599 62.2045 13.5365C62.1454 13.5131 62.0915 13.4782 62.0459 13.434C62.0002 13.3897 61.9638 13.3369 61.9386 13.2785C61.9133 13.2201 61.8999 13.1574 61.8989 13.0938V9.20305C61.8989 6.87446 63.3144 4.91624 66.1087 4.91624C67.4362 4.91624 68.4703 5.37096 69.0937 6.13738C69.1408 6.19624 69.2005 6.24376 69.2684 6.27641C69.3363 6.30907 69.4107 6.32602 69.4861 6.32602C69.5615 6.32602 69.6359 6.30907 69.7038 6.27641C69.7717 6.24376 69.8314 6.19624 69.8785 6.13738C70.245 5.72697 70.6987 5.40367 71.2063 5.19112C71.7138 4.97858 72.2625 4.88215 72.8121 4.90891C75.6248 4.91624 77.0439 6.87446 77.0439 9.20305Z" fill="#2A3235"/>
<path d="M79.1709 2.48864C79.1781 2.25751 79.2374 2.03098 79.3443 1.82595C79.4513 1.62092 79.6031 1.44268 79.7885 1.3045C79.9739 1.16632 80.1881 1.07177 80.4152 1.0279C80.6422 0.984033 80.8762 0.991978 81.0998 1.05114C81.3986 1.12585 81.6671 1.29097 81.8686 1.52397C82.0701 1.75696 82.1948 2.04647 82.2256 2.35295C82.243 2.5609 82.2167 2.77019 82.1484 2.96737C82.0801 3.16456 81.9713 3.34528 81.8291 3.49792C81.6868 3.65057 81.5141 3.77176 81.3222 3.85371C81.1303 3.93567 80.9234 3.97657 80.7147 3.9738C80.3133 3.98068 79.9255 3.82828 79.6362 3.54995C79.3469 3.27162 79.1796 2.89001 79.1709 2.48864ZM81.9505 5.69733V13.0938C81.9496 13.1577 81.936 13.2208 81.9106 13.2794C81.8851 13.338 81.8483 13.391 81.8023 13.4353C81.7563 13.4796 81.7019 13.5144 81.6424 13.5376C81.5829 13.5608 81.5194 13.572 81.4555 13.5705H79.963C79.8343 13.5725 79.71 13.5235 79.6172 13.4342C79.5245 13.3449 79.4708 13.2225 79.4679 13.0938V5.69733C79.4708 5.56861 79.5245 5.44626 79.6172 5.35695C79.71 5.26765 79.8343 5.21864 79.963 5.22061H81.4555C81.5194 5.21915 81.5829 5.23035 81.6424 5.25356C81.7019 5.27677 81.7563 5.31154 81.8023 5.35586C81.8483 5.40018 81.8851 5.45317 81.9106 5.51177C81.936 5.57038 81.9496 5.63344 81.9505 5.69733Z" fill="#2A3235"/>
<path d="M83.9419 9.32041C83.9331 8.73262 84.0438 8.14916 84.2674 7.60548C84.491 7.0618 84.8228 6.56924 85.2425 6.15769C85.6623 5.74615 86.1614 5.42421 86.7094 5.21144C87.2574 4.99866 87.8429 4.89948 88.4304 4.91992C91.1734 4.91992 92.7612 6.87814 92.7612 9.15539V9.38642C92.7603 9.44999 92.7468 9.51274 92.7216 9.57111C92.6964 9.62947 92.6599 9.68229 92.6143 9.72656C92.5686 9.77083 92.5147 9.80568 92.4556 9.82911C92.3965 9.85254 92.3334 9.86411 92.2698 9.86314H86.9929C86.9129 9.85968 86.8333 9.87661 86.7616 9.91234C86.6898 9.94806 86.6284 10.0014 86.5829 10.0674C86.5375 10.1334 86.5096 10.2098 86.5017 10.2895C86.4939 10.3692 86.5064 10.4497 86.5382 10.5232C86.7361 10.9028 87.0392 11.2174 87.4112 11.4294C87.7831 11.6414 88.2082 11.7418 88.6357 11.7187C88.9984 11.7312 89.3591 11.66 89.6898 11.5105C90.0206 11.3611 90.3124 11.1374 90.5426 10.8569C90.6133 10.7628 90.7144 10.696 90.8287 10.6679C90.943 10.6399 91.0635 10.6522 91.1697 10.7029L92.2111 11.209C92.2722 11.2368 92.3265 11.2774 92.3705 11.3279C92.4146 11.3785 92.4472 11.438 92.4663 11.5023C92.4854 11.5666 92.4906 11.6342 92.4813 11.7006C92.4721 11.767 92.4487 11.8307 92.4128 11.8874C92.0021 12.5005 91.4407 12.9979 90.7825 13.3318C90.1244 13.6657 89.3915 13.8249 88.6541 13.7942C85.9661 13.7906 83.9419 11.9864 83.9419 9.32041ZM89.6075 8.52099C89.6938 8.52263 89.7789 8.50082 89.8537 8.45791C89.9286 8.41499 89.9904 8.35256 90.0325 8.27728C90.0747 8.202 90.0956 8.11669 90.0931 8.03045C90.0906 7.94421 90.0647 7.86027 90.0182 7.78757C89.8347 7.53655 89.5921 7.33463 89.312 7.19968C89.0318 7.06472 88.7227 7.00089 88.4121 7.01382C88.0957 7.0015 87.781 7.06535 87.4945 7.2C87.208 7.33465 86.958 7.53616 86.7655 7.78757C86.7189 7.86053 86.693 7.94482 86.6906 8.03139C86.6882 8.11796 86.7095 8.20354 86.7521 8.27894C86.7947 8.35434 86.857 8.41672 86.9324 8.45936C87.0078 8.502 87.0933 8.52331 87.1799 8.52099H89.6075Z" fill="#2A3235"/>
<path d="M95.0605 13.5706C94.9318 13.5725 94.8075 13.5235 94.7147 13.4342C94.622 13.3449 94.5683 13.2226 94.5654 13.0938V8.78137C94.5654 6.6398 95.8232 5.00061 98.3939 5.00061C98.8188 5.00014 99.2419 5.05687 99.6517 5.1693C99.7515 5.19657 99.8396 5.2558 99.9025 5.33793C99.9654 5.42006 99.9997 5.52056 100 5.62402V6.90749C99.9971 6.9831 99.9769 7.05702 99.9409 7.1236C99.905 7.19017 99.8543 7.24762 99.7927 7.29153C99.731 7.33544 99.6602 7.36464 99.5855 7.37689C99.5109 7.38915 99.4344 7.38412 99.362 7.36221C99.1227 7.29838 98.8762 7.26511 98.6286 7.2632C98.4152 7.24671 98.2009 7.27709 98.0005 7.35222C97.8002 7.42734 97.6187 7.54539 97.4688 7.69809C97.3189 7.85078 97.2042 8.03442 97.1328 8.23612C97.0614 8.43783 97.0349 8.65271 97.0554 8.86571V13.0938C97.0544 13.1577 97.0408 13.2208 97.0154 13.2794C96.9899 13.338 96.9532 13.391 96.9071 13.4353C96.8611 13.4796 96.8068 13.5144 96.7473 13.5376C96.6877 13.5608 96.6242 13.572 96.5603 13.5706H95.0605Z" fill="#2A3235"/>
<path d="M34.4985 27.1717C34.3697 27.1737 34.2455 27.1247 34.1527 27.0354C34.06 26.9461 34.0063 26.8237 34.0034 26.695V17.9417C34.0034 16.6435 34.6488 15.8148 36.2587 15.8148H41.9463C42.075 15.8128 42.1993 15.8618 42.2921 15.9511C42.3848 16.0404 42.4385 16.1628 42.4414 16.2915V17.6153C42.4404 17.6792 42.4268 17.7423 42.4014 17.8009C42.3759 17.8595 42.3391 17.9125 42.2931 17.9568C42.2471 18.0011 42.1928 18.0359 42.1332 18.0591C42.0737 18.0823 42.0102 18.0935 41.9463 18.092H37.0471C36.919 18.091 36.7956 18.1405 36.7037 18.2297C36.6117 18.3189 36.5586 18.4407 36.5557 18.5688V20.5856C36.5567 20.6492 36.5701 20.712 36.5953 20.7703C36.6206 20.8287 36.657 20.8815 36.7026 20.9258C36.7483 20.9701 36.8022 21.0049 36.8613 21.0283C36.9204 21.0518 36.9835 21.0633 37.0471 21.0624H41.5466C41.6102 21.0614 41.6733 21.073 41.7324 21.0964C41.7915 21.1198 41.8454 21.1547 41.891 21.1989C41.9367 21.2432 41.9731 21.296 41.9983 21.3544C42.0236 21.4128 42.037 21.4755 42.038 21.5391V22.8482C42.0351 22.9763 41.9819 23.0981 41.89 23.1873C41.798 23.2765 41.6747 23.3259 41.5466 23.325H37.0471C36.9835 23.324 36.9204 23.3355 36.8613 23.359C36.8022 23.3824 36.7483 23.4173 36.7026 23.4615C36.657 23.5058 36.6206 23.5586 36.5953 23.617C36.5701 23.6753 36.5567 23.7381 36.5557 23.8017V26.695C36.5528 26.8237 36.4991 26.9461 36.4064 27.0354C36.3137 27.1247 36.1894 27.1737 36.0606 27.1717H34.4985Z" fill="#2A3235"/>
<path d="M43.5415 22.9693C43.5415 20.5563 45.5841 18.5688 48.2207 18.5688C50.8573 18.5688 52.9219 20.5783 52.9219 22.9693C52.9219 25.3602 50.8757 27.3881 48.2207 27.3881C45.5657 27.3881 43.5415 25.3895 43.5415 22.9693ZM50.4393 22.9876C50.448 22.5507 50.3264 22.121 50.09 21.7535C49.8537 21.3859 49.5132 21.097 49.112 20.9237C48.7108 20.7504 48.2671 20.7005 47.8374 20.7804C47.4077 20.8603 47.0116 21.0663 46.6995 21.3722C46.3873 21.678 46.1734 22.07 46.0848 22.4979C45.9963 22.9259 46.0372 23.3705 46.2024 23.7751C46.3676 24.1797 46.6495 24.526 47.0122 24.7698C47.3749 25.0135 47.802 25.1438 48.239 25.1439C48.5255 25.1482 48.8099 25.0957 49.076 24.9895C49.342 24.8832 49.5844 24.7252 49.789 24.5247C49.9936 24.3242 50.1564 24.0851 50.268 23.8213C50.3796 23.5574 50.4379 23.2741 50.4393 22.9876Z" fill="#2A3235"/>
<path d="M54.125 22.9693C54.125 20.5563 56.1676 18.5688 58.8079 18.5688C61.4481 18.5688 63.5237 20.5747 63.5237 22.9693C63.5237 25.3639 61.4812 27.3881 58.8262 27.3881C56.1712 27.3881 54.125 25.3895 54.125 22.9693ZM61.0264 22.9876C61.0351 22.5515 60.914 22.1226 60.6784 21.7554C60.4428 21.3883 60.1034 21.0994 59.7033 20.9256C59.3032 20.7518 58.8604 20.7009 58.4313 20.7793C58.0021 20.8576 57.606 21.0618 57.2931 21.3659C56.9803 21.6699 56.7649 22.0601 56.6743 22.4868C56.5838 22.9135 56.6221 23.3576 56.7844 23.7625C56.9468 24.1674 57.2258 24.5149 57.5861 24.7609C57.9464 25.0068 58.3716 25.1401 58.8079 25.1439C59.0958 25.1507 59.3823 25.1 59.6504 24.9949C59.9186 24.8897 60.1631 24.7321 60.3697 24.5314C60.5763 24.3306 60.7407 24.0907 60.8535 23.8256C60.9663 23.5605 61.0251 23.2757 61.0264 22.9876Z" fill="#2A3235"/>
<path d="M64.7119 23.0022C64.7119 20.4059 66.5454 18.5834 69.2517 18.5834C69.822 18.5839 70.3852 18.7091 70.9019 18.9501C70.9754 18.9825 71.0557 18.9964 71.1359 18.9906C71.216 18.9848 71.2934 18.9594 71.3615 18.9167C71.4295 18.874 71.486 18.8153 71.5261 18.7457C71.5662 18.6761 71.5886 18.5977 71.5913 18.5174V15.4481C71.5923 15.3845 71.6058 15.3217 71.631 15.2634C71.6562 15.205 71.6927 15.1522 71.7383 15.1079C71.7839 15.0636 71.8378 15.0288 71.8969 15.0054C71.956 14.9819 72.0192 14.9704 72.0827 14.9713H73.5789C73.7076 14.9694 73.8319 15.0184 73.9247 15.1077C74.0174 15.197 74.0711 15.3193 74.074 15.4481V23.0022C74.074 25.5325 72.0827 27.4027 69.3728 27.4027C66.6628 27.4027 64.7119 25.4152 64.7119 23.0022ZM71.6097 23.0022C71.6097 22.4163 71.3769 21.8543 70.9626 21.4399C70.5482 21.0256 69.9862 20.7928 69.4003 20.7928C68.8143 20.7928 68.2523 21.0256 67.838 21.4399C67.4236 21.8543 67.1909 22.4163 67.1909 23.0022C67.1909 23.5882 67.4236 24.1502 67.838 24.5645C68.2523 24.9789 68.8143 25.2116 69.4003 25.2116C69.9862 25.2116 70.5482 24.9789 70.9626 24.5645C71.3769 24.1502 71.6097 23.5882 71.6097 23.0022Z" fill="#2A3235"/>
<path d="M76.2443 25.2685L77.216 24.7368C77.3215 24.6829 77.4423 24.6666 77.5583 24.6906C77.6743 24.7146 77.7786 24.7775 77.8541 24.8688C78.0532 25.0849 78.2992 25.2525 78.5732 25.3587C78.8472 25.4648 79.1419 25.5067 79.4346 25.4812C80.2377 25.4812 80.7438 25.1805 80.7438 24.6891C80.7438 23.3396 75.9766 24.5057 75.9766 21.2824C75.9766 19.7825 77.3407 18.5981 79.4713 18.5981C81.0151 18.5981 82.0382 19.1848 82.6543 19.9402C82.6987 19.994 82.7305 20.057 82.7474 20.1246C82.7642 20.1923 82.7656 20.2628 82.7516 20.3311C82.7375 20.3994 82.7083 20.4636 82.666 20.5191C82.6238 20.5746 82.5697 20.6199 82.5076 20.6516L81.5578 21.1687C81.4568 21.2266 81.3392 21.2486 81.2241 21.2313C81.1089 21.214 81.003 21.1584 80.9234 21.0734C80.746 20.8826 80.529 20.7329 80.2877 20.6348C80.0464 20.5366 79.7865 20.4923 79.5263 20.505C78.9139 20.505 78.4592 20.7947 78.4592 21.2384C78.4592 22.5879 83.2264 21.5097 83.2264 24.6488C83.2264 26.3356 81.5322 27.4137 79.5593 27.4137C77.9898 27.4137 76.831 26.926 76.0866 25.9689C76.0446 25.9147 76.0151 25.8518 76.0002 25.7849C75.9854 25.7179 75.9855 25.6485 76.0005 25.5816C76.0156 25.5147 76.0452 25.4519 76.0874 25.3978C76.1295 25.3437 76.1831 25.2995 76.2443 25.2685Z" fill="#2A3235"/>
</svg>
